{
    "asset" : {
        "generator" : "Khronos glTF Blender I/O v1.5.17",
        "version" : "2.0"
    },
    "scene" : 0,
    "scenes" : [
        {
            "name" : "Scene",
            "nodes" : [
                0,
                1,
                2,
                3,
                4,
                5,
                6
            ]
        }
    ],
    "nodes" : [
        {
            "mesh" : 0,
            "name" : "BezierCurve.006_BezierCurve.002",
            "rotation" : [
                0.4996885657310486,
                0.5002139806747437,
                0.49976301193237305,
                -0.5003341436386108
            ]
        },
        {
            "mesh" : 1,
            "name" : "polySurface1",
            "rotation" : [
                0.4996885657310486,
                0.5002139806747437,
                0.49976301193237305,
                -0.5003341436386108
            ]
        },
        {
            "mesh" : 2,
            "name" : "polySurface2",
            "rotation" : [
                0.4996885657310486,
                0.5002139806747437,
                0.49976301193237305,
                -0.5003341436386108
            ]
        },
        {
            "mesh" : 3,
            "name" : "polySurface3",
            "rotation" : [
                0.4996885657310486,
                0.5002139806747437,
                0.49976301193237305,
                -0.5003341436386108
            ]
        },
        {
            "mesh" : 4,
            "name" : "polySurface4",
            "rotation" : [
                0.4996885657310486,
                0.5002139806747437,
                0.49976301193237305,
                -0.5003341436386108
            ]
        },
        {
            "mesh" : 5,
            "name" : "polySurface5",
            "rotation" : [
                0.4996885657310486,
                0.5002139806747437,
                0.49976301193237305,
                -0.5003341436386108
            ]
        },
        {
            "mesh" : 6,
            "name" : "polySurface6",
            "rotation" : [
                0.4996885657310486,
                0.5002139806747437,
                0.49976301193237305,
                -0.5003341436386108
            ]
        }
    ],
    "materials" : [
        {
            "doubleSided" : true,
            "name" : "initialShadingGroup.002",
            "pbrMetallicRoughness" : {
                "baseColorFactor" : [
                    0.800000011920929,
                    0.800000011920929,
                    0.800000011920929,
                    1
                ],
                "metallicFactor" : 0,
                "roughnessFactor" : 0.5
            }
        }
    ],
    "meshes" : [
        {
            "name" : "BezierCurve.006_BezierCurve.002",
            "primitives" : [
                {
                    "attributes" : {
                        "POSITION" : 0,
                        "NORMAL" : 1,
                        "TEXCOORD_0" : 2
                    },
                    "indices" : 3
                }
            ]
        },
        {
            "name" : "polySurface1",
            "primitives" : [
                {
                    "attributes" : {
                        "POSITION" : 4,
                        "NORMAL" : 5,
                        "TEXCOORD_0" : 6
                    },
                    "indices" : 7
                }
            ]
        },
        {
            "name" : "polySurface2",
            "primitives" : [
                {
                    "attributes" : {
                        "POSITION" : 8,
                        "NORMAL" : 9,
                        "TEXCOORD_0" : 10
                    },
                    "indices" : 11,
                    "material" : 0
                }
            ]
        },
        {
            "name" : "polySurface3",
            "primitives" : [
                {
                    "attributes" : {
                        "POSITION" : 12,
                        "NORMAL" : 13,
                        "TEXCOORD_0" : 14
                    },
                    "indices" : 15
                }
            ]
        },
        {
            "name" : "polySurface4",
            "primitives" : [
                {
                    "attributes" : {
                        "POSITION" : 16,
                        "NORMAL" : 17,
                        "TEXCOORD_0" : 18
                    },
                    "indices" : 19
                }
            ]
        },
        {
            "name" : "polySurface5",
            "primitives" : [
                {
                    "attributes" : {
                        "POSITION" : 20,
                        "NORMAL" : 21,
                        "TEXCOORD_0" : 22
                    },
                    "indices" : 19
                }
            ]
        },
        {
            "name" : "polySurface6",
            "primitives" : [
                {
                    "attributes" : {
                        "POSITION" : 23,
                        "NORMAL" : 24,
                        "TEXCOORD_0" : 25
                    },
                    "indices" : 26
                }
            ]
        }
    ],
    "accessors" : [
        {
            "bufferView" : 0,
            "componentType" : 5126,
            "count" : 14160,
            "max" : [
                1.1216875314712524,
                0.5015140175819397,
                0.43350738286972046
            ],
            "min" : [
                -0.7824579477310181,
                -0.46411025524139404,
                0.03401225805282593
            ],
            "type" : "VEC3"
        },
        {
            "bufferView" : 1,
            "componentType" : 5126,
            "count" : 14160,
            "type" : "VEC3"
        },
        {
            "bufferView" : 2,
            "componentType" : 5126,
            "count" : 14160,
            "type" : "VEC2"
        },
        {
            "bufferView" : 3,
            "componentType" : 5123,
            "count" : 84096,
            "type" : "SCALAR"
        },
        {
            "bufferView" : 4,
            "componentType" : 5126,
            "count" : 6,
            "max" : [
                1.4133726358413696,
                0.47216862440109253,
                0.2042858898639679
            ],
            "min" : [
                -1.146889328956604,
                -0.43609440326690674,
                0.20358914136886597
            ],
            "type" : "VEC3"
        },
        {
            "bufferView" : 5,
            "componentType" : 5126,
            "count" : 6,
            "type" : "VEC3"
        },
        {
            "bufferView" : 6,
            "componentType" : 5126,
            "count" : 6,
            "type" : "VEC2"
        },
        {
            "bufferView" : 7,
            "componentType" : 5123,
            "count" : 6,
            "type" : "SCALAR"
        },
        {
            "bufferView" : 8,
            "componentType" : 5126,
            "count" : 12,
            "max" : [
                1.4134441614151,
                0.49862730503082275,
                0.6021075248718262
            ],
            "min" : [
                1.3692892789840698,
                -0.4623626172542572,
                0.20358914136886597
            ],
            "type" : "VEC3"
        },
        {
            "bufferView" : 9,
            "componentType" : 5126,
            "count" : 12,
            "type" : "VEC3"
        },
        {
            "bufferView" : 10,
            "componentType" : 5126,
            "count" : 12,
            "type" : "VEC2"
        },
        {
            "bufferView" : 11,
            "componentType" : 5123,
            "count" : 12,
            "type" : "SCALAR"
        },
        {
            "bufferView" : 12,
            "componentType" : 5126,
            "count" : 12,
            "max" : [
                -1.100797414779663,
                0.3843252956867218,
                0.6403203010559082
            ],
            "min" : [
                -1.146889328956604,
                -0.3480081856250763,
                0.20409157872200012
            ],
            "type" : "VEC3"
        },
        {
            "bufferView" : 13,
            "componentType" : 5126,
            "count" : 12,
            "type" : "VEC3"
        },
        {
            "bufferView" : 14,
            "componentType" : 5126,
            "count" : 12,
            "type" : "VEC2"
        },
        {
            "bufferView" : 15,
            "componentType" : 5123,
            "count" : 12,
            "type" : "SCALAR"
        },
        {
            "bufferView" : 16,
            "componentType" : 5126,
            "count" : 8,
            "max" : [
                1.4134492874145508,
                -0.31045767664909363,
                0.6403203010559082
            ],
            "min" : [
                -1.146889328956604,
                -0.46503329277038574,
                0.2038537859916687
            ],
            "type" : "VEC3"
        },
        {
            "bufferView" : 17,
            "componentType" : 5126,
            "count" : 8,
            "type" : "VEC3"
        },
        {
            "bufferView" : 18,
            "componentType" : 5126,
            "count" : 8,
            "type" : "VEC2"
        },
        {
            "bufferView" : 19,
            "componentType" : 5123,
            "count" : 12,
            "type" : "SCALAR"
        },
        {
            "bufferView" : 20,
            "componentType" : 5126,
            "count" : 8,
            "max" : [
                1.4134505987167358,
                0.5013209581375122,
                0.6401285529136658
            ],
            "min" : [
                -1.146888017654419,
                0.3467760682106018,
                0.20358914136886597
            ],
            "type" : "VEC3"
        },
        {
            "bufferView" : 21,
            "componentType" : 5126,
            "count" : 8,
            "type" : "VEC3"
        },
        {
            "bufferView" : 22,
            "componentType" : 5126,
            "count" : 8,
            "type" : "VEC2"
        },
        {
            "bufferView" : 23,
            "componentType" : 5126,
            "count" : 74,
            "max" : [
                1.4275249242782593,
                0.5162442922592163,
                0.9575615525245667
            ],
            "min" : [
                -1.1608792543411255,
                -0.4799911081790924,
                0.5926675200462341
            ],
            "type" : "VEC3"
        },
        {
            "bufferView" : 24,
            "componentType" : 5126,
            "count" : 74,
            "type" : "VEC3"
        },
        {
            "bufferView" : 25,
            "componentType" : 5126,
            "count" : 74,
            "type" : "VEC2"
        },
        {
            "bufferView" : 26,
            "componentType" : 5123,
            "count" : 78,
            "type" : "SCALAR"
        }
    ],
    "bufferViews" : [
        {
            "buffer" : 0,
            "byteLength" : 169920,
            "byteOffset" : 0
        },
        {
            "buffer" : 0,
            "byteLength" : 169920,
            "byteOffset" : 169920
        },
        {
            "buffer" : 0,
            "byteLength" : 113280,
            "byteOffset" : 339840
        },
        {
            "buffer" : 0,
            "byteLength" : 168192,
            "byteOffset" : 453120
        },
        {
            "buffer" : 0,
            "byteLength" : 72,
            "byteOffset" : 621312
        },
        {
            "buffer" : 0,
            "byteLength" : 72,
            "byteOffset" : 621384
        },
        {
            "buffer" : 0,
            "byteLength" : 48,
            "byteOffset" : 621456
        },
        {
            "buffer" : 0,
            "byteLength" : 12,
            "byteOffset" : 621504
        },
        {
            "buffer" : 0,
            "byteLength" : 144,
            "byteOffset" : 621516
        },
        {
            "buffer" : 0,
            "byteLength" : 144,
            "byteOffset" : 621660
        },
        {
            "buffer" : 0,
            "byteLength" : 96,
            "byteOffset" : 621804
        },
        {
            "buffer" : 0,
            "byteLength" : 24,
            "byteOffset" : 621900
        },
        {
            "buffer" : 0,
            "byteLength" : 144,
            "byteOffset" : 621924
        },
        {
            "buffer" : 0,
            "byteLength" : 144,
            "byteOffset" : 622068
        },
        {
            "buffer" : 0,
            "byteLength" : 96,
            "byteOffset" : 622212
        },
        {
            "buffer" : 0,
            "byteLength" : 24,
            "byteOffset" : 622308
        },
        {
            "buffer" : 0,
            "byteLength" : 96,
            "byteOffset" : 622332
        },
        {
            "buffer" : 0,
            "byteLength" : 96,
            "byteOffset" : 622428
        },
        {
            "buffer" : 0,
            "byteLength" : 64,
            "byteOffset" : 622524
        },
        {
            "buffer" : 0,
            "byteLength" : 24,
            "byteOffset" : 622588
        },
        {
            "buffer" : 0,
            "byteLength" : 96,
            "byteOffset" : 622612
        },
        {
            "buffer" : 0,
            "byteLength" : 96,
            "byteOffset" : 622708
        },
        {
            "buffer" : 0,
            "byteLength" : 64,
            "byteOffset" : 622804
        },
        {
            "buffer" : 0,
            "byteLength" : 888,
            "byteOffset" : 622868
        },
        {
            "buffer" : 0,
            "byteLength" : 888,
            "byteOffset" : 623756
        },
        {
            "buffer" : 0,
            "byteLength" : 592,
            "byteOffset" : 624644
        },
        {
            "buffer" : 0,
            "byteLength" : 156,
            "byteOffset" : 625236
        }
    ],
    "buffers" : [
        {
            "byteLength" : 625392,
            "uri" : "data:application/octet-stream;base64,"
        }
    ]
}
